<?xml version="1.0" encoding="UTF-8" standalone="no"?>
<svg
   version="1.1"
   width="185.03183"
   height="181.06882"
   id="svg4232"
   sodipodi:docname="DHBW-Logo_notext.svg"
   inkscape:version="1.3 (0e150ed6c4, 2023-07-21)"
   xmlns:inkscape="http://www.inkscape.org/namespaces/inkscape"
   xmlns:sodipodi="http://sodipodi.sourceforge.net/DTD/sodipodi-0.dtd"
   xmlns="http://www.w3.org/2000/svg"
   xmlns:svg="http://www.w3.org/2000/svg">
  <sodipodi:namedview
     id="namedview1"
     pagecolor="#ffffff"
     bordercolor="#000000"
     borderopacity="0.25"
     inkscape:showpageshadow="2"
     inkscape:pageopacity="0.0"
     inkscape:pagecheckerboard="0"
     inkscape:deskcolor="#d1d1d1"
     inkscape:zoom="1.3147232"
     inkscape:cx="260.51111"
     inkscape:cy="212.97259"
     inkscape:window-width="2560"
     inkscape:window-height="1368"
     inkscape:window-x="0"
     inkscape:window-y="0"
     inkscape:window-maximized="1"
     inkscape:current-layer="layer1" />
  <defs
     id="defs4234" />
  <g
     transform="translate(-130.33351,-394.59072)"
     id="layer1">
    <path
       d="m 271.0889,441.05367 v 36.89704 c 0,1.83664 -1.57975,4.86494 -3.4164,6.69613 l -37.58032,37.58031 c -0.91833,0.91833 -1.85852,1.36657 -2.4598,1.36657 -0.60129,0 -0.9566,-0.44824 -0.9566,-1.36657 v 4.09968 c 0,1.83665 1.57975,3.4164 3.4164,3.4164 h 81.85677 c 1.83665,0 3.41639,-1.57975 3.41639,-3.4164 V 444.3334 c 0,-1.83666 -1.57974,-3.27973 -3.41639,-3.27973 z m -52.06583,85.27316 c 0,1.83665 -1.58521,3.4164 -3.41639,3.4164 h -40.86007 v 44.54975 c 0,0.91832 0.36077,1.36656 0.95659,1.36656 0.59583,0 1.40483,-0.44824 2.32315,-1.36656 l 37.58033,-37.58032 c 1.83118,-1.83665 3.41639,-4.85948 3.41639,-6.69613 z"
       id="path84"
       style="fill:#7d8990;fill-opacity:1;fill-rule:nonzero;stroke:none" />
    <path
       d="m 270.1323,394.59072 c -0.60404,0 -1.54147,0.44823 -2.4598,1.36656 l -37.58032,37.71698 c -1.83118,1.83119 -3.4164,4.72282 -3.4164,6.55948 v 4.09966 77.89375 c 0,1.83666 1.58522,1.83666 3.4164,0 l 37.58032,-37.58031 c 1.83665,-1.83665 3.4164,-4.85949 3.4164,-6.69613 v -36.89704 -45.09639 c 0,-0.91833 -0.35247,-1.36656 -0.9566,-1.36656 z m -136.3824,46.46295 c -1.83665,0 -3.41639,1.44307 -3.41639,3.27973 v 81.99343 c 0,1.83665 1.57974,3.4164 3.41639,3.4164 h 81.85678 c 1.83665,0 3.41639,-1.57975 3.41639,-3.4164 V 444.3334 c 0,-1.83666 -1.57974,-3.27973 -3.41639,-3.27973 z"
       id="path88"
       style="fill:#e2001a;fill-opacity:1;fill-rule:nonzero;stroke:none" />
    <path
       d="m 230.09218,441.05367 c -1.83665,0 -3.4164,1.57974 -3.4164,3.41639 v 77.75709 c 0,0.91833 0.35553,1.36657 0.9566,1.36657 0.60128,0 1.54147,-0.44824 2.4598,-1.36657 l 37.58032,-37.58031 c 1.83665,-1.83665 3.4164,-4.86494 3.4164,-6.69613 v -36.89704 z m -12.0257,5.60288 c -0.60675,0 -1.54148,0.4537 -2.4598,1.36655 l -37.58033,37.71698 c -1.83118,1.86945 -3.27974,4.72829 -3.27974,6.55947 v 37.44368 h 40.86007 c 1.83665,0 3.41639,-1.57975 3.41639,-3.4164 V 448.0231 c 0,-0.91285 -0.35553,-1.36655 -0.95659,-1.36655 z"
       id="path100"
       style="fill:#8e1016;fill-opacity:1;fill-rule:nonzero;stroke:none" />
  </g>
</svg>
